<svg width="642" height="113" viewBox="0 0 642 113" fill="none" xmlns="http://www.w3.org/2000/svg">
<path d="M641.334 81.48C641.334 83.56 640.614 85.32 639.174 86.76C637.814 88.12 636.094 88.8 634.014 88.8C632.014 88.8 630.334 88.12 628.974 86.76C627.614 85.32 626.934 83.56 626.934 81.48V7.32C626.934 5.24 627.614 3.52 628.974 2.15999C630.414 0.719998 632.174 0 634.254 0C636.334 0 638.014 0.719998 639.294 2.15999C640.654 3.52 641.334 5.24 641.334 7.32V81.48Z" fill="#0185FF" fill-opacity="0.8"/>
<path d="M602.943 23.4001C605.023 23.4001 606.743 24.0801 608.103 25.4401C609.463 26.8001 610.143 28.5601 610.143 30.7201V81.4801C610.143 83.5601 609.463 85.3201 608.103 86.7601C606.743 88.1201 605.023 88.8001 602.943 88.8001C600.863 88.8001 599.143 88.1201 597.783 86.7601C596.423 85.3201 595.743 83.5601 595.743 81.4801V75.6001L598.383 76.6801C598.383 77.7201 597.823 79.0001 596.703 80.5201C595.583 81.9601 594.063 83.4001 592.143 84.8401C590.223 86.2801 587.943 87.5202 585.303 88.5602C582.743 89.5202 579.943 90.0001 576.903 90.0001C571.383 90.0001 566.383 88.6001 561.903 85.8001C557.423 82.9201 553.863 79.0001 551.223 74.0401C548.663 69.0001 547.383 63.2401 547.383 56.7601C547.383 50.2001 548.663 44.4401 551.223 39.4801C553.863 34.4401 557.383 30.5201 561.783 27.7201C566.183 24.8401 571.063 23.4001 576.423 23.4001C579.863 23.4001 583.023 23.9201 585.903 24.9601C588.783 26.0001 591.263 27.3201 593.343 28.9201C595.503 30.5201 597.143 32.1601 598.263 33.8401C599.463 35.4401 600.063 36.8001 600.063 37.9201L595.743 39.4801V30.7201C595.743 28.6401 596.423 26.9201 597.783 25.5601C599.143 24.1201 600.863 23.4001 602.943 23.4001ZM578.703 76.8001C582.223 76.8001 585.303 75.9201 587.943 74.1601C590.583 72.4001 592.623 70.0001 594.063 66.9601C595.583 63.9201 596.343 60.5201 596.343 56.7601C596.343 52.9201 595.583 49.4801 594.063 46.4401C592.623 43.4001 590.583 41.0001 587.943 39.2401C585.303 37.4801 582.223 36.6001 578.703 36.6001C575.263 36.6001 572.223 37.4801 569.583 39.2401C566.943 41.0001 564.863 43.4001 563.343 46.4401C561.903 49.4801 561.183 52.9201 561.183 56.7601C561.183 60.5201 561.903 63.9201 563.343 66.9601C564.863 70.0001 566.943 72.4001 569.583 74.1601C572.223 75.9201 575.263 76.8001 578.703 76.8001Z" fill="#0185FF" fill-opacity="0.8"/>
<path d="M514.544 4.80005C518.704 4.80005 522.584 6.00005 526.184 8.40005C529.864 10.8001 532.824 14.0401 535.064 18.1201C537.304 22.2001 538.424 26.7601 538.424 31.8001C538.424 36.7601 537.304 41.2801 535.064 45.3601C532.824 49.4401 529.864 52.7201 526.184 55.2001C522.584 57.6001 518.704 58.8001 514.544 58.8001H492.464L493.664 56.6401V81.4801C493.664 83.5601 493.024 85.3201 491.744 86.7601C490.464 88.1201 488.784 88.8001 486.704 88.8001C484.704 88.8001 483.064 88.1201 481.784 86.7601C480.504 85.3201 479.864 83.5601 479.864 81.4801V12.12C479.864 10.0401 480.544 8.32005 481.904 6.96005C483.344 5.52005 485.104 4.80005 487.184 4.80005H514.544ZM514.544 45.1201C516.064 45.1201 517.544 44.4801 518.984 43.2001C520.424 41.9201 521.624 40.2801 522.584 38.2801C523.544 36.2001 524.024 34.0401 524.024 31.8001C524.024 29.4801 523.544 27.3201 522.584 25.3201C521.624 23.3201 520.424 21.7201 518.984 20.5201C517.544 19.2401 516.064 18.6001 514.544 18.6001H492.224L493.664 16.4401V47.0401L492.344 45.1201H514.544Z" fill="#0185FF" fill-opacity="0.8"/>
<path d="M455.874 24.6001C457.954 24.6001 459.674 25.3201 461.034 26.7601C462.394 28.1201 463.074 29.8401 463.074 31.9201V82.9201C463.074 90.2801 461.674 96.1201 458.874 100.44C456.154 104.84 452.474 108 447.834 109.92C443.194 111.84 437.994 112.8 432.234 112.8C429.674 112.8 426.954 112.6 424.074 112.2C421.194 111.8 418.834 111.2 416.994 110.4C414.594 109.36 412.914 108.04 411.954 106.44C411.074 104.92 410.914 103.28 411.474 101.52C412.194 99.2001 413.354 97.6001 414.954 96.7201C416.554 95.9201 418.234 95.8401 419.994 96.4801C421.274 96.8801 422.954 97.4801 425.034 98.2801C427.114 99.1601 429.514 99.6001 432.234 99.6001C435.914 99.6001 438.954 99.0801 441.354 98.0401C443.834 97.0801 445.674 95.4001 446.874 93.0001C448.154 90.6801 448.794 87.4801 448.794 83.4001V75.3601L451.314 78.2401C449.954 80.8801 448.234 83.0801 446.154 84.8401C444.154 86.5201 441.754 87.8001 438.954 88.6801C436.154 89.5601 432.954 90.0001 429.354 90.0001C425.114 90.0001 421.394 89.0401 418.194 87.1201C415.074 85.1201 412.634 82.4001 410.874 78.9601C409.114 75.4401 408.234 71.4401 408.234 66.9601V31.9201C408.234 29.8401 408.914 28.1201 410.274 26.7601C411.634 25.3201 413.354 24.6001 415.434 24.6001C417.514 24.6001 419.234 25.3201 420.594 26.7601C421.954 28.1201 422.634 29.8401 422.634 31.9201V62.6401C422.634 67.8401 423.754 71.5201 425.994 73.6801C428.314 75.7601 431.514 76.8001 435.594 76.8001C438.394 76.8001 440.754 76.2801 442.674 75.2401C444.594 74.1201 446.074 72.5201 447.114 70.4401C448.154 68.2801 448.674 65.6801 448.674 62.6401V31.9201C448.674 29.8401 449.354 28.1201 450.714 26.7601C452.074 25.3201 453.794 24.6001 455.874 24.6001Z" fill="#0F172A"/>
<path d="M368.279 90.0001C361.479 90.0001 355.559 88.6001 350.519 85.8001C345.559 82.9201 341.719 79.0401 338.999 74.1601C336.359 69.2801 335.039 63.7601 335.039 57.6001C335.039 50.4001 336.479 44.2801 339.359 39.2401C342.319 34.1201 346.159 30.2001 350.879 27.4801C355.599 24.7601 360.599 23.4001 365.879 23.4001C369.959 23.4001 373.799 24.2401 377.399 25.9201C381.079 27.6001 384.319 29.9201 387.119 32.8801C389.919 35.7601 392.119 39.1201 393.719 42.9601C395.399 46.8001 396.239 50.8801 396.239 55.2001C396.159 57.1201 395.399 58.6801 393.959 59.8801C392.519 61.0801 390.839 61.6801 388.919 61.6801H343.079L339.479 49.6801H383.519L380.879 52.0801V48.8401C380.719 46.5201 379.879 44.4401 378.359 42.6001C376.919 40.7601 375.079 39.3201 372.839 38.2801C370.679 37.1601 368.359 36.6001 365.879 36.6001C363.479 36.6001 361.239 36.9201 359.159 37.5601C357.079 38.2001 355.279 39.2801 353.759 40.8001C352.239 42.3201 351.039 44.3602 350.159 46.9202C349.279 49.4802 348.839 52.7201 348.839 56.6401C348.839 60.9601 349.719 64.6401 351.479 67.6801C353.319 70.6401 355.639 72.9201 358.439 74.5201C361.319 76.0401 364.359 76.8001 367.559 76.8001C370.519 76.8001 372.879 76.5601 374.639 76.0801C376.399 75.6001 377.799 75.0401 378.839 74.4001C379.959 73.6801 380.959 73.0802 381.839 72.6002C383.279 71.8802 384.639 71.5201 385.919 71.5201C387.679 71.5201 389.119 72.1201 390.239 73.3201C391.439 74.5201 392.039 75.9201 392.039 77.5201C392.039 79.6801 390.919 81.6401 388.679 83.4001C386.599 85.1601 383.679 86.7201 379.919 88.0801C376.159 89.3601 372.279 90.0001 368.279 90.0001Z" fill="#0F172A"/>
<path d="M300.875 23.4001C306.795 23.4001 311.275 24.6401 314.315 27.1201C317.435 29.6001 319.555 32.9201 320.675 37.0801C321.875 41.1601 322.475 45.7201 322.475 50.7601V81.4801C322.475 83.5601 321.795 85.3201 320.435 86.7601C319.075 88.1201 317.355 88.8001 315.275 88.8001C313.195 88.8001 311.475 88.1201 310.115 86.7601C308.755 85.3201 308.075 83.5601 308.075 81.4801V50.7601C308.075 48.1201 307.715 45.7601 306.995 43.6801C306.355 41.5201 305.155 39.8001 303.395 38.5201C301.635 37.2401 299.115 36.6001 295.835 36.6001C292.635 36.6001 289.915 37.2401 287.675 38.5201C285.515 39.8001 283.835 41.5201 282.635 43.6801C281.515 45.7601 280.955 48.1201 280.955 50.7601V81.4801C280.955 83.5601 280.275 85.3201 278.915 86.7601C277.555 88.1201 275.835 88.8001 273.755 88.8001C271.675 88.8001 269.955 88.1201 268.595 86.7601C267.235 85.3201 266.555 83.5601 266.555 81.4801V31.9201C266.555 29.8401 267.235 28.1201 268.595 26.7601C269.955 25.3201 271.675 24.6001 273.755 24.6001C275.835 24.6001 277.555 25.3201 278.915 26.7601C280.275 28.1201 280.955 29.8401 280.955 31.9201V37.0801L279.155 36.7201C279.875 35.3601 280.915 33.9201 282.275 32.4001C283.635 30.8001 285.235 29.3201 287.075 27.9601C288.915 26.6001 290.995 25.5201 293.315 24.7201C295.635 23.8401 298.155 23.4001 300.875 23.4001Z" fill="#0F172A"/>
<path d="M221.723 88.8001C219.643 88.8001 217.923 88.1201 216.563 86.7601C215.203 85.3201 214.523 83.5601 214.523 81.4801V31.9201C214.523 29.8401 215.203 28.1201 216.563 26.7601C217.923 25.3201 219.643 24.6001 221.723 24.6001C223.803 24.6001 225.523 25.3201 226.883 26.7601C228.243 28.1201 228.923 29.8401 228.923 31.9201V43.2001L228.083 35.1601C228.963 33.2401 230.083 31.5601 231.443 30.1201C232.883 28.6001 234.483 27.3601 236.243 26.4001C238.003 25.3601 239.883 24.6001 241.883 24.1201C243.883 23.6401 245.883 23.4001 247.883 23.4001C250.283 23.4001 252.283 24.0801 253.883 25.4401C255.563 26.8001 256.403 28.4001 256.403 30.2401C256.403 32.8801 255.723 34.8001 254.363 36.0001C253.003 37.1201 251.523 37.6801 249.923 37.6801C248.403 37.6801 247.003 37.4001 245.723 36.8401C244.523 36.2801 243.123 36.0001 241.523 36.0001C240.083 36.0001 238.603 36.3601 237.083 37.0801C235.643 37.7201 234.283 38.7601 233.003 40.2001C231.803 41.6401 230.803 43.4401 230.003 45.6001C229.283 47.6801 228.923 50.1601 228.923 53.0401V81.4801C228.923 83.5601 228.243 85.3201 226.883 86.7601C225.523 88.1201 223.803 88.8001 221.723 88.8001Z" fill="#0F172A"/>
<path d="M191.734 24.6001C193.814 24.6001 195.534 25.3201 196.894 26.7601C198.254 28.1201 198.934 29.8401 198.934 31.9201V62.4001C198.934 70.8801 196.574 77.6001 191.854 82.5601C187.134 87.5201 180.334 90.0001 171.454 90.0001C162.574 90.0001 155.774 87.5201 151.054 82.5601C146.414 77.6001 144.094 70.8801 144.094 62.4001V31.9201C144.094 29.8401 144.774 28.1201 146.134 26.7601C147.494 25.3201 149.214 24.6001 151.294 24.6001C153.374 24.6001 155.094 25.3201 156.454 26.7601C157.814 28.1201 158.494 29.8401 158.494 31.9201V62.4001C158.494 67.2801 159.574 70.9201 161.734 73.3201C163.894 75.6401 167.134 76.8001 171.454 76.8001C175.854 76.8001 179.134 75.6401 181.294 73.3201C183.454 70.9201 184.534 67.2801 184.534 62.4001V31.9201C184.534 29.8401 185.214 28.1201 186.574 26.7601C187.934 25.3201 189.654 24.6001 191.734 24.6001Z" fill="#0F172A"/>
<path d="M131.491 56.7601C131.491 63.3201 130.011 69.1201 127.051 74.1601C124.171 79.1201 120.251 83.0001 115.291 85.8001C110.411 88.6001 104.931 90.0001 98.8509 90.0001C92.7709 90.0001 87.2509 88.6001 82.2909 85.8001C77.4109 83.0001 73.4909 79.1201 70.5309 74.1601C67.6509 69.1201 66.2109 63.3201 66.2109 56.7601C66.2109 50.2001 67.6509 44.4401 70.5309 39.4801C73.4909 34.4401 77.4109 30.5201 82.2909 27.7201C87.2509 24.8401 92.7709 23.4001 98.8509 23.4001C104.931 23.4001 110.411 24.8401 115.291 27.7201C120.251 30.5201 124.171 34.4401 127.051 39.4801C130.011 44.4401 131.491 50.2001 131.491 56.7601ZM117.091 56.7601C117.091 52.6801 116.251 49.1601 114.571 46.2001C112.971 43.1601 110.771 40.8001 107.971 39.1201C105.251 37.4401 102.211 36.6001 98.8509 36.6001C95.4909 36.6001 92.4109 37.4401 89.6109 39.1201C86.8909 40.8001 84.6909 43.1601 83.0109 46.2001C81.4109 49.1601 80.6109 52.6801 80.6109 56.7601C80.6109 60.7601 81.4109 64.2801 83.0109 67.3201C84.6909 70.2801 86.8909 72.6001 89.6109 74.2801C92.4109 75.9601 95.4909 76.8001 98.8509 76.8001C102.211 76.8001 105.251 75.9601 107.971 74.2801C110.771 72.6001 112.971 70.2801 114.571 67.3201C116.251 64.2801 117.091 60.7601 117.091 56.7601Z" fill="#0F172A"/>
<path d="M23.76 90.0001C19.2 90.0001 14.96 89.0801 11.04 87.2401C7.12 85.4001 3.92 82.7601 1.44 79.3201C0.48 77.8801 0 76.4801 0 75.1201C0 73.1201 0.76 71.4401 2.28 70.0801C3.88 68.7201 5.44 68.0401 6.96 68.0401C8.16 68.0401 9.32 68.4001 10.44 69.1201C11.64 69.8401 12.72 70.6801 13.68 71.6401C15.28 73.0801 16.84 74.1201 18.36 74.7601C19.96 75.3201 21.76 75.6001 23.76 75.6001C26.16 75.6001 28.4 75.0001 30.48 73.8001C32.56 72.6001 34.24 71.0001 35.52 69.0001C36.8 67.0001 37.44 64.8401 37.44 62.5201V12.12C37.44 10.0401 38.2 8.32005 39.72 6.96005C41.24 5.52005 43 4.80005 45 4.80005C47.24 4.80005 49.04 5.52005 50.4 6.96005C51.76 8.32005 52.44 10.0401 52.44 12.12V62.5201C52.44 67.4001 51.16 71.9201 48.6 76.0801C46.04 80.2401 42.6 83.6001 38.28 86.1601C33.96 88.7201 29.12 90.0001 23.76 90.0001Z" fill="#0F172A"/>
</svg>
